<svg width="905" height="144" viewBox="0 0 905 144" fill="none" xmlns="http://www.w3.org/2000/svg">
<path d="M763.557 41.7244H731.72C728.07 41.7244 724.569 43.4151 721.988 46.4244C719.407 49.4338 717.957 53.5154 717.957 57.7712V86.2291C717.955 88.5515 718.386 90.8466 719.221 92.9551C720.055 95.0636 721.274 96.9348 722.792 98.4388C725.278 100.918 728.444 102.278 731.716 102.271H763.553L763.557 41.7244Z" fill="#005F87"/>
<path d="M837.764 10.0917H774.178C771.842 10.0917 769.529 10.6281 767.371 11.6704C765.214 12.7127 763.253 14.2404 761.602 16.1662C759.95 18.0921 758.641 20.3784 757.747 22.8945C756.854 25.4107 756.394 28.1074 756.395 30.8306V113.169C756.395 118.668 758.268 123.942 761.603 127.83C764.938 131.719 769.461 133.903 774.178 133.903H837.764V10.0917Z" fill="#005F87"/>
<path d="M837.777 141.283V2.72714C837.777 1.2237 838.823 0.00488281 840.112 0.00488281L849.443 0.00488281C850.733 0.00488281 851.778 1.2237 851.778 2.72714V141.283C851.778 142.786 850.733 144.005 849.443 144.005H840.112C838.823 144.005 837.777 142.786 837.777 141.283Z" fill="#005F87"/>
<path d="M851.777 90.5809V111.683H895.058C896.246 111.683 897.423 111.41 898.521 110.879C899.619 110.349 900.617 109.571 901.457 108.591C902.297 107.611 902.963 106.448 903.418 105.168C903.872 103.887 904.106 102.515 904.105 101.13C904.105 98.3319 903.152 95.6488 901.455 93.6706C899.759 91.6923 897.457 90.5809 895.058 90.5809H851.777Z" fill="#232851"/>
<path d="M904.105 42.8708C904.105 40.0732 903.152 37.39 901.456 35.4117C899.759 33.4335 897.458 32.3222 895.058 32.3222H851.778V53.4238L895.058 53.4238C897.458 53.4238 899.759 52.3125 901.456 50.3343C903.152 48.356 904.105 45.6729 904.105 42.8752V42.8708Z" fill="#232851"/>
<path d="M837.764 10.0917H774.178C771.842 10.0917 769.529 10.6281 767.371 11.6704C765.214 12.7127 763.253 14.2404 761.602 16.1662C759.95 18.0921 758.641 20.3784 757.747 22.8945C756.854 25.4107 756.394 28.1074 756.395 30.8306V113.169C756.395 118.668 758.268 123.942 761.603 127.83C764.938 131.719 769.461 133.903 774.178 133.903C779.473 44.9969 837.764 36.8213 837.764 36.8213V10.0917Z" fill="#005F87"/>
<path d="M837.777 10.0964V133.908H832.651V10.0964H837.777Z" fill="#232851"/>
<path d="M810.886 10.0915H774.172C771.836 10.0915 769.523 10.6279 767.366 11.6702C765.208 12.7125 763.247 14.2402 761.596 16.166C759.945 18.0919 758.635 20.3782 757.741 22.8943C756.848 25.4105 756.388 28.1072 756.389 30.8304V88.6328C756.396 30.2618 810.886 10.0915 810.886 10.0915Z" fill="#232851"/>
<path d="M756.398 41.7245V102.271H753.073V41.7245H756.398Z" fill="#232851"/>
<path d="M858.113 90.5809V111.683H851.777V90.5809H858.113Z" fill="#15172D"/>
<path d="M858.117 32.3221V53.4238H851.781V32.3221H858.117Z" fill="#15172D"/>
<path d="M756.395 41.7241H731.72C728.07 41.7241 724.569 43.4147 721.988 46.4241C719.407 49.4334 717.957 53.515 717.957 57.7709V86.2288C717.955 88.5511 718.386 90.8463 719.221 92.9547C720.055 95.0632 721.274 96.9345 722.792 98.4385C718.126 54.0815 756.391 47.3073 756.391 47.3073L756.395 41.7241Z" fill="#232851"/>
<path d="M717.957 81.3125H0V62.6823H717.957V81.3125Z" fill="#005F87"/>
</svg>
