<svg width="868" height="144" viewBox="0 0 868 144" fill="none" xmlns="http://www.w3.org/2000/svg">
<path d="M88.8379 41.7244H120.675C124.325 41.7244 127.826 43.4151 130.407 46.4244C132.988 49.4338 134.438 53.5154 134.438 57.7712V86.2291C134.44 88.5515 134.009 90.8466 133.174 92.9551C132.339 95.0636 131.121 96.9348 129.603 98.4388C127.117 100.918 123.951 102.278 120.679 102.271H88.8417L88.8379 41.7244Z" fill="#005F87"/>
<path d="M868 79.3965H134.441V60.7663H868V79.3965Z" fill="#005F87"/>
<path d="M14.6289 10.0917H78.227C80.5627 10.0917 82.8754 10.6281 85.0332 11.6704C87.191 12.7127 89.1515 14.2404 90.8028 16.1662C92.4542 18.0921 93.764 20.3784 94.6575 22.8945C95.5509 25.4107 96.0105 28.1074 96.01 30.8306V113.169C96.01 118.668 94.1365 123.942 90.8015 127.83C87.4666 131.719 82.9434 133.903 78.227 133.903H14.6289V10.0917Z" fill="#005F87"/>
<path d="M0.621094 141.283L0.621094 2.72714C0.621094 1.2237 1.66641 0.00488281 2.95583 0.00488281L12.287 0.00488281C13.5764 0.00488281 14.6217 1.2237 14.6217 2.72714L14.6217 141.283C14.6217 142.786 13.5764 144.005 12.287 144.005H2.95583C1.66641 144.005 0.621094 142.786 0.621094 141.283Z" fill="#005F87"/>
<path d="M14.6289 10.0917H78.227C80.5627 10.0917 82.8754 10.6281 85.0332 11.6704C87.191 12.7127 89.1515 14.2404 90.8028 16.1662C92.4542 18.0921 93.764 20.3784 94.6575 22.8945C95.5509 25.4107 96.0105 28.1074 96.01 30.8306V113.169C96.01 118.668 94.1365 123.942 90.8015 127.83C87.4666 131.719 82.9434 133.903 78.227 133.903C72.9202 44.9969 14.6289 36.8213 14.6289 36.8213V10.0917Z" fill="#005F87"/>
<path d="M19.748 10.0916L19.748 133.903H14.6217L14.6217 10.0916H19.748Z" fill="#232851"/>
<path d="M41.5098 10.0915H78.2241C80.5597 10.0915 82.8725 10.6279 85.0303 11.6702C87.188 12.7125 89.1486 14.2402 90.7999 16.166C92.4513 18.0919 93.7611 20.3782 94.6545 22.8943C95.548 25.4105 96.0076 28.1072 96.0071 30.8304V88.6328C95.9994 30.2618 41.5098 10.0915 41.5098 10.0915Z" fill="#232851"/>
<path d="M99.3242 41.7284V102.275H95.9988V41.7284H99.3242Z" fill="#232851"/>
<path d="M95.998 41.7241H120.674C124.324 41.7241 127.824 43.4147 130.405 46.4241C132.986 49.4334 134.436 53.515 134.436 57.7709V86.2288C134.439 88.5511 134.008 90.8463 133.173 92.9547C132.338 95.0632 131.119 96.9345 129.602 98.4385C134.267 54.0815 96.0019 47.3073 96.0019 47.3073L95.998 41.7241Z" fill="#232851"/>
</svg>
